# This file uses centimeters as units for non-parametric coordinates.

mtllib Joint.mtl
g default
v 0.000000 0.000000 0.423563
v 0.423563 0.000000 0.000000
v 0.000000 0.423563 0.000000
v -0.423563 0.000000 0.000000
v 0.000000 -0.423563 0.000000
v 0.000000 0.000000 -0.423563
v 0.299504 0.299504 0.000000
v 0.000000 0.299504 0.299504
v 0.299504 0.000000 0.299504
v 0.244544 0.244544 0.244544
v -0.299504 0.299504 0.000000
v -0.299504 0.000000 0.299504
v -0.244544 0.244544 0.244544
v -0.299504 -0.299504 0.000000
v 0.000000 -0.299504 0.299504
v -0.244544 -0.244544 0.244544
v 0.299504 -0.299504 0.000000
v 0.244544 -0.244544 0.244544
v 0.000000 0.299504 -0.299504
v 0.299504 0.000000 -0.299504
v 0.244544 0.244544 -0.244544
v -0.299504 0.000000 -0.299504
v -0.244544 0.244544 -0.244544
v 0.000000 -0.299504 -0.299504
v -0.244544 -0.244544 -0.244544
v 0.244544 -0.244544 -0.244544
vt 0.500000 0.500000
vt 0.750000 0.500000
vt 0.500000 1.000000
vt 0.250000 0.500000
vt 0.500000 1.000000
vt 1.000000 0.500000
vt 0.750000 0.750000
vt 0.500000 0.750000
vt 0.625000 0.500000
vt 0.625000 0.695913
vt 0.250000 0.750000
vt 0.375000 0.500000
vt 0.375000 0.695913
vt 0.250000 0.250000
vt 0.500000 0.250000
vt 0.375000 0.304087
vt 0.750000 0.250000
vt 0.625000 0.304087
vt 1.000000 0.750000
vt 0.875000 0.500000
vt 0.875000 0.695913
vt 0.125000 0.500000
vt 0.125000 0.695913
vt 1.000000 0.250000
vt 0.125000 0.304087
vt 0.875000 0.304087
vt 1.125000 0.500000
vt 1.125000 0.695913
vt 1.250000 0.750000
vt 1.125000 0.304087
vt 1.250000 0.250000
vn 0.888074 0.325058 0.325058
vn 0.888074 0.325058 0.325058
vn 0.888074 0.325058 0.325058
vn 0.888074 0.325058 0.325058
vn 0.325058 0.888074 0.325058
vn 0.325058 0.888074 0.325058
vn 0.325058 0.888074 0.325058
vn 0.325058 0.888074 0.325058
vn 0.325058 0.325058 0.888074
vn 0.325058 0.325058 0.888074
vn 0.325058 0.325058 0.888074
vn 0.325058 0.325058 0.888074
vn -0.325058 0.888074 0.325058
vn -0.325058 0.888074 0.325058
vn -0.325058 0.888074 0.325058
vn -0.325058 0.888074 0.325058
vn -0.888074 0.325058 0.325058
vn -0.888074 0.325058 0.325058
vn -0.888074 0.325058 0.325058
vn -0.888074 0.325058 0.325058
vn -0.325058 0.325058 0.888074
vn -0.325058 0.325058 0.888074
vn -0.325058 0.325058 0.888074
vn -0.325058 0.325058 0.888074
vn -0.888074 -0.325058 0.325058
vn -0.888074 -0.325058 0.325058
vn -0.888074 -0.325058 0.325058
vn -0.888074 -0.325058 0.325058
vn -0.325058 -0.888074 0.325058
vn -0.325058 -0.888074 0.325058
vn -0.325058 -0.888074 0.325058
vn -0.325058 -0.888074 0.325058
vn -0.325058 -0.325058 0.888074
vn -0.325058 -0.325058 0.888074
vn -0.325058 -0.325058 0.888074
vn -0.325058 -0.325058 0.888074
vn 0.325058 -0.325058 0.888074
vn 0.325058 -0.325058 0.888074
vn 0.325058 -0.325058 0.888074
vn 0.325058 -0.325058 0.888074
vn 0.325058 -0.888074 0.325058
vn 0.325058 -0.888074 0.325058
vn 0.325058 -0.888074 0.325058
vn 0.325058 -0.888074 0.325058
vn 0.888074 -0.325058 0.325058
vn 0.888074 -0.325058 0.325058
vn 0.888074 -0.325058 0.325058
vn 0.888074 -0.325058 0.325058
vn 0.325058 0.325058 -0.888074
vn 0.325058 0.325058 -0.888074
vn 0.325058 0.325058 -0.888074
vn 0.325058 0.325058 -0.888074
vn 0.325058 0.888074 -0.325058
vn 0.325058 0.888074 -0.325058
vn 0.325058 0.888074 -0.325058
vn 0.325058 0.888074 -0.325058
vn 0.888074 0.325058 -0.325058
vn 0.888074 0.325058 -0.325058
vn 0.888074 0.325058 -0.325058
vn 0.888074 0.325058 -0.325058
vn -0.325058 0.325058 -0.888074
vn -0.325058 0.325058 -0.888074
vn -0.325058 0.325058 -0.888074
vn -0.325058 0.325058 -0.888074
vn -0.888074 0.325058 -0.325058
vn -0.888074 0.325058 -0.325058
vn -0.888074 0.325058 -0.325058
vn -0.888074 0.325058 -0.325058
vn -0.325058 0.888074 -0.325058
vn -0.325058 0.888074 -0.325058
vn -0.325058 0.888074 -0.325058
vn -0.325058 0.888074 -0.325058
vn -0.325058 -0.325058 -0.888074
vn -0.325058 -0.325058 -0.888074
vn -0.325058 -0.325058 -0.888074
vn -0.325058 -0.325058 -0.888074
vn -0.325058 -0.888074 -0.325058
vn -0.325058 -0.888074 -0.325058
vn -0.325058 -0.888074 -0.325058
vn -0.325058 -0.888074 -0.325058
vn -0.888074 -0.325058 -0.325058
vn -0.888074 -0.325058 -0.325058
vn -0.888074 -0.325058 -0.325058
vn -0.888074 -0.325058 -0.325058
vn 0.325058 -0.325058 -0.888074
vn 0.325058 -0.325058 -0.888074
vn 0.325058 -0.325058 -0.888074
vn 0.325058 -0.325058 -0.888074
vn 0.888074 -0.325058 -0.325058
vn 0.888074 -0.325058 -0.325058
vn 0.888074 -0.325058 -0.325058
vn 0.888074 -0.325058 -0.325058
vn 0.325058 -0.888074 -0.325058
vn 0.325058 -0.888074 -0.325058
vn 0.325058 -0.888074 -0.325058
vn 0.325058 -0.888074 -0.325058
s off
g pPlatonic1
usemtl initialShadingGroup
f 9/9/1 2/2/2 7/7/3 10/10/4
f 7/7/5 3/3/6 8/8/7 10/10/8
f 8/8/9 1/1/10 9/9/11 10/10/12
f 8/8/13 3/3/14 11/11/15 13/13/16
f 11/11/17 4/4/18 12/12/19 13/13/20
f 12/12/21 1/1/22 8/8/23 13/13/24
f 12/12/25 4/4/26 14/14/27 16/16/28
f 14/14/29 5/5/30 15/15/31 16/16/32
f 15/15/33 1/1/34 12/12/35 16/16/36
f 9/9/37 1/1/38 15/15/39 18/18/40
f 15/15/41 5/5/42 17/17/43 18/18/44
f 17/17/45 2/2/46 9/9/47 18/18/48
f 20/20/49 6/6/50 19/19/51 21/21/52
f 19/19/53 3/3/54 7/7/55 21/21/56
f 7/7/57 2/2/58 20/20/59 21/21/60
f 19/19/61 6/6/62 22/27/63 23/28/64
f 22/22/65 4/4/66 11/11/67 23/23/68
f 11/29/69 3/3/70 19/19/71 23/28/72
f 22/27/73 6/6/74 24/24/75 25/30/76
f 24/24/77 5/5/78 14/31/79 25/30/80
f 14/14/81 4/4/82 22/22/83 25/25/84
f 24/24/85 6/6/86 20/20/87 26/26/88
f 20/20/89 2/2/90 17/17/91 26/26/92
f 17/17/93 5/5/94 24/24/95 26/26/96
