# This file uses centimeters as units for non-parametric coordinates.

mtllib RocketLegUpper.mtl
g default
v -0.568479 -1.250046 0.292832
v -0.284268 -1.250046 0.585606
v -0.568479 1.250047 0.292832
v -0.284268 1.250047 0.585606
v 0.568479 -1.250046 0.292832
v 0.284268 -1.250046 0.585606
v 0.568479 1.250047 0.292832
v 0.284268 1.250047 0.585606
v -0.568479 1.250047 -0.292832
v -0.284268 1.250047 -0.585606
v -0.568479 -1.250046 -0.292832
v -0.284268 -1.250046 -0.585606
v 0.284268 1.250047 -0.585606
v 0.568479 1.250047 -0.292832
v 0.568479 -1.250046 -0.292832
v 0.284268 -1.250046 -0.585606
v 0.750232 1.046612 0.361737
v 0.750232 -1.046611 0.361737
v 0.750232 -1.046611 -0.361737
v 0.750232 1.046612 -0.361737
v 1.041669 1.296516 0.448111
v 0.940818 1.297946 0.350102
v 0.849048 1.176925 0.406777
v 1.041669 -1.296515 0.448111
v 0.849048 -1.176924 0.406777
v 0.940818 -1.297946 0.350102
v 1.041669 -1.296515 -0.448110
v 0.940818 -1.297946 -0.350102
v 0.849048 -1.176924 -0.406776
v 1.041669 1.296516 -0.448110
v 0.849048 1.176925 -0.406776
v 0.940818 1.297946 -0.350102
v 1.614473 1.290061 0.306915
v 1.357761 1.292032 0.446561
v 1.614473 -1.290060 0.306915
v 1.357761 -1.292031 0.446561
v 1.614473 -1.290060 -0.306915
v 1.357761 -1.292031 -0.446561
v 1.614473 1.290061 -0.306915
v 1.357761 1.292032 -0.446561
vt 0.437494 0.250000
vt 0.437494 0.000000
vt 0.562506 0.000000
vt 0.562506 0.250000
vt 0.437494 0.750000
vt 0.437494 0.500000
vt 0.562506 0.500000
vt 0.562506 0.750000
vt 0.706975 0.250000
vt 0.706975 0.000000
vt 0.793025 0.000000
vt 0.793025 0.250000
vt 0.187494 0.250000
vt 0.187494 0.000000
vt 0.312506 0.000000
vt 0.312506 0.250000
vt 0.375000 0.312494
vt 0.625000 0.312494
vt 0.625000 0.437506
vt 0.375000 0.437506
vt 0.375000 0.812494
vt 0.625000 0.812494
vt 0.625000 0.937506
vt 0.562506 1.000000
vt 0.437494 1.000000
vt 0.375000 0.937506
vt 0.687494 0.000000
vt 0.687494 0.250000
vt 0.687494 0.000000
vt 0.687494 0.250000
vt 0.812506 0.000000
vt 0.812506 0.000000
vt 0.812506 0.250000
vt 0.812506 0.250000
vt 0.687494 0.000000
vt 0.687494 0.250000
vt 0.812506 0.000000
vt 0.798781 0.000000
vt 0.701219 0.000000
vt 0.812506 0.250000
vt 0.701219 0.250000
vt 0.798781 0.250000
vt 0.687494 0.250000
vt 0.687494 0.000000
vt 0.687494 0.000000
vt 0.687494 0.250000
vt 0.812506 0.000000
vt 0.812506 0.250000
vt 0.812506 0.250000
vt 0.812506 0.000000
vn 0.000000 0.000000 1.000000
vn 0.000000 0.000000 1.000000
vn 0.000000 0.000000 1.000000
vn 0.000000 0.000000 1.000000
vn 0.000000 0.000000 -1.000000
vn 0.000000 0.000000 -1.000000
vn 0.000000 0.000000 -1.000000
vn 0.000000 0.000000 -1.000000
vn 1.000000 0.000000 0.000000
vn 1.000000 0.000000 0.000000
vn 1.000000 0.000000 0.000000
vn 1.000000 0.000000 0.000000
vn -1.000000 0.000000 0.000000
vn -1.000000 0.000000 0.000000
vn -1.000000 0.000000 0.000000
vn -1.000000 0.000000 0.000000
vn 0.000000 1.000000 0.000000
vn 0.000000 1.000000 0.000000
vn 0.000000 1.000000 0.000000
vn 0.000000 1.000000 0.000000
vn 0.000000 1.000000 0.000000
vn 0.000000 1.000000 0.000000
vn 0.000000 1.000000 0.000000
vn 0.000000 1.000000 0.000000
vn 0.000000 -1.000000 0.000000
vn 0.000000 -1.000000 0.000000
vn 0.000000 -1.000000 0.000000
vn 0.000000 -1.000000 0.000000
vn 0.000000 -1.000000 0.000000
vn 0.000000 -1.000000 0.000000
vn 0.000000 -1.000000 0.000000
vn 0.000000 -1.000000 0.000000
vn -0.717522 0.000000 0.696535
vn -0.717522 0.000000 0.696535
vn -0.717522 0.000000 0.696535
vn -0.717522 0.000000 0.696535
vn 0.717522 0.000000 0.696536
vn 0.717522 0.000000 0.696536
vn 0.717522 0.000000 0.696536
vn 0.717522 0.000000 0.696536
vn -0.717522 0.000000 -0.696535
vn -0.717522 0.000000 -0.696535
vn -0.717522 0.000000 -0.696535
vn -0.717522 0.000000 -0.696535
vn 0.717522 0.000000 -0.696536
vn 0.717522 0.000000 -0.696536
vn 0.717522 0.000000 -0.696536
vn 0.717522 0.000000 -0.696536
vn -0.354491 0.000000 0.935059
vn -0.354491 0.000000 0.935059
vn -0.354491 0.000000 0.935059
vn -0.354491 0.000000 0.935059
vn 0.745729 -0.666250 0.000000
vn 0.745729 -0.666250 0.000000
vn 0.745729 -0.666250 0.000000
vn 0.745729 -0.666250 0.000000
vn -0.354491 0.000000 -0.935059
vn -0.354491 0.000000 -0.935059
vn -0.354491 0.000000 -0.935059
vn -0.354491 0.000000 -0.935059
vn 0.745728 0.666250 0.000000
vn 0.745728 0.666250 0.000000
vn 0.745728 0.666250 0.000000
vn 0.745728 0.666250 0.000000
vn -0.414746 0.000000 0.909937
vn -0.414746 0.000000 0.909937
vn -0.265979 0.000000 0.963979
vn -0.265979 0.000000 0.963979
vn -0.796818 -0.604220 0.000000
vn -0.796818 -0.604220 0.000000
vn -0.796818 -0.604220 0.000000
vn -0.796818 -0.604220 0.000000
vn -0.796818 -0.604220 0.000000
vn -0.796818 -0.604220 0.000000
vn -0.414745 0.000000 -0.909938
vn -0.414745 0.000000 -0.909938
vn -0.265979 0.000000 -0.963979
vn -0.265979 0.000000 -0.963979
vn -0.796817 0.604220 -0.000000
vn -0.796817 0.604220 -0.000000
vn -0.796817 0.604220 -0.000000
vn -0.796817 0.604220 -0.000000
vn -0.796817 0.604220 -0.000000
vn -0.796817 0.604220 -0.000000
vn -0.070644 0.000000 0.997502
vn -0.070644 0.000000 0.997502
vn 0.004903 0.000000 0.999988
vn 0.004903 0.000000 0.999988
vn -0.070644 0.000000 -0.997502
vn -0.070644 0.000000 -0.997502
vn 0.004903 0.000000 -0.999988
vn 0.004903 0.000000 -0.999988
vn 0.011924 -0.999929 0.000000
vn 0.011924 -0.999929 0.000000
vn 0.011924 -0.999929 0.000000
vn 0.011924 -0.999929 0.000000
vn 0.011924 -0.999929 0.000000
vn 0.011924 -0.999929 0.000000
vn 0.011924 -0.999929 0.000000
vn 0.011924 -0.999929 0.000000
vn 0.011923 0.999929 0.000000
vn 0.011923 0.999929 0.000000
vn 0.011923 0.999929 0.000000
vn 0.011923 0.999929 0.000000
vn 0.011923 0.999929 0.000000
vn 0.011923 0.999929 0.000000
vn 0.011923 0.999929 0.000000
vn 0.011923 0.999929 0.000000
vn -0.070644 0.000000 0.997502
vn -0.265979 0.000000 0.963979
vn -0.265979 0.000000 0.963979
vn -0.070644 0.000000 0.997502
vn -0.070644 0.000000 -0.997502
vn -0.265979 0.000000 -0.963979
vn -0.265979 0.000000 -0.963979
vn -0.070644 0.000000 -0.997502
vn 0.477851 0.000000 0.878441
vn 0.477851 0.000000 0.878441
vn 0.477851 0.000000 0.878441
vn 0.477851 0.000000 0.878441
vn 0.477851 0.000000 -0.878441
vn 0.477851 0.000000 -0.878441
vn 0.477851 0.000000 -0.878441
vn 0.477851 0.000000 -0.878441
vn -0.522997 0.653072 0.547696
vn -0.522997 0.653072 0.547696
vn -0.522997 0.653072 0.547696
vn -0.522996 -0.653071 0.547698
vn -0.522996 -0.653071 0.547698
vn -0.522996 -0.653071 0.547698
vn -0.522996 -0.653072 -0.547698
vn -0.522996 -0.653071 -0.547698
vn -0.522996 -0.653071 -0.547698
vn -0.522997 0.653071 -0.547697
vn -0.522997 0.653071 -0.547697
vn -0.522997 0.653071 -0.547697
s off
g RocketLegUpper1
usemtl RocketLegUpper:initialShadingGroup
f 4/1/1 2/2/2 6/3/3 8/4/4
f 12/5/5 10/6/6 13/7/7 16/8/8
f 33/9/9 35/10/10 37/11/11 39/12/12
f 9/13/13 11/14/14 1/15/15 3/16/16
f 3/17/17 4/1/18 8/4/19 7/18/20 14/19/21 13/7/22 10/6/23 9/20/24
f 11/21/25 12/5/26 16/8/27 15/22/28 5/23/29 6/24/30 2/25/31 1/26/32
f 1/15/33 2/2/34 4/1/35 3/16/36
f 6/3/37 5/27/38 7/28/39 8/4/40
f 9/20/41 10/6/42 12/5/43 11/21/44
f 13/7/45 14/19/46 15/22/47 16/8/48
f 7/28/49 5/27/50 18/29/51 17/30/52
f 5/27/53 15/31/54 19/32/55 18/29/56
f 15/31/57 14/33/58 20/34/59 19/32/60
f 14/33/61 7/28/62 17/30/63 20/34/64
f 17/30/65 18/29/66 25/35/67 23/36/68
f 18/29/69 19/32/70 29/37/71 28/38/72 26/39/73 25/35/74
f 19/32/75 20/34/76 31/40/77 29/37/78
f 20/34/79 17/30/80 23/36/81 22/41/82 32/42/83 31/40/84
f 21/43/85 24/44/86 36/45/87 34/46/88
f 27/47/89 30/48/90 40/49/91 38/50/92
f 24/44/93 26/39/94 28/38/95 27/47/96 38/50/97 37/11/98 35/10/99 36/45/100
f 30/48/101 32/42/102 22/41/103 21/43/104 34/46/105 33/9/106 39/12/107 40/49/108
f 21/43/109 23/36/110 25/35/111 24/44/112
f 27/47/113 29/37/114 31/40/115 30/48/116
f 33/9/117 34/46/118 36/45/119 35/10/120
f 37/11/121 38/50/122 40/49/123 39/12/124
f 21/43/125 22/41/126 23/36/127
f 24/44/128 25/35/129 26/39/130
f 27/47/131 28/38/132 29/37/133
f 30/48/134 31/40/135 32/42/136
