# This file uses centimeters as units for non-parametric coordinates.

mtllib WheelLegLower.mtl
g default
v 0.709311 -1.758456 2.061813
v 0.709311 0.253386 0.049972
v 0.709311 -3.770297 0.049972
v 0.709311 -1.758456 -1.961868
v 0.931109 -0.335869 0.049972
v 0.709311 -0.335869 1.472559
v 0.931109 -1.758456 1.472559
v 0.890409 -0.596918 1.211510
v 0.487509 -0.335869 0.049972
v 0.487509 -1.758456 1.472559
v 0.528214 -0.596919 1.211508
v 0.487509 -3.181042 0.049972
v 0.709311 -3.181042 1.472559
v 0.528214 -2.919992 1.211508
v 0.931109 -3.181042 0.049972
v 0.890409 -2.919993 1.211510
v 0.709311 -0.335869 -1.372614
v 0.931109 -1.758456 -1.372614
v 0.890409 -0.596918 -1.111565
v 0.487509 -1.758456 -1.372614
v 0.528214 -0.596919 -1.111564
v 0.709311 -3.181042 -1.372614
v 0.528214 -2.919992 -1.111564
v 0.890409 -2.919993 -1.111565
v 0.555530 -1.246014 0.049972
v 0.555530 -1.758456 0.197920
v 0.555530 -1.246015 0.197919
v 0.555530 -2.270897 0.049972
v 0.555530 -2.270896 0.197919
v 0.555530 -1.758456 -0.097975
v 0.555530 -1.246015 -0.097974
v 0.555530 -2.270896 -0.097974
v 0.285909 0.011478 0.137975
v 0.285909 0.011478 -0.130443
v 0.194831 -1.382417 -0.130443
v 0.194831 -1.382417 0.137975
v -0.159794 -0.979459 0.137975
v -0.071147 -1.080189 0.272157
v -0.250873 0.011478 0.137975
v -0.116691 0.011478 0.272157
v 0.106184 -1.281688 0.272157
v 0.151727 0.011478 0.272157
v -0.250873 0.011478 -0.130443
v -0.116691 0.011478 -0.264625
v -0.159794 -0.979459 -0.130443
v -0.071147 -1.080189 -0.264625
v 0.151727 0.011478 -0.264625
v 0.106184 -1.281688 -0.264625
v 0.791071 -1.758456 0.839856
v 0.791071 -0.968572 0.049972
v 0.768472 -1.113518 0.694910
v 0.791071 -2.548339 0.049972
v 0.768472 -2.403393 0.694910
v 0.791071 -1.758456 -0.739911
v 0.768472 -1.113518 -0.594965
v 0.768472 -2.403393 -0.594965
v 1.029687 -1.758456 0.544835
v 1.061646 -1.758456 0.049972
v 1.029687 -1.263593 0.049972
v 1.015529 -1.354402 0.454026
v 1.029687 -2.253318 0.049972
v 1.015529 -2.162509 0.454026
v 1.029687 -1.758456 -0.444890
v 1.015529 -1.354402 -0.354081
v 1.015529 -2.162509 -0.354081
vt 0.500000 0.500000
vt 0.750000 0.500000
vt 0.500000 1.000000
vt 0.500000 1.000000
vt 1.000000 0.500000
vt 0.750000 0.750000
vt 0.500000 0.750000
vt 0.625000 0.500000
vt 0.625000 0.695913
vt 0.250000 0.750000
vt 0.375000 0.500000
vt 0.375000 0.695913
vt 0.250000 0.250000
vt 0.500000 0.250000
vt 0.375000 0.304087
vt 0.750000 0.250000
vt 0.625000 0.304087
vt 1.000000 0.750000
vt 0.875000 0.500000
vt 0.875000 0.695913
vt 0.125000 0.500000
vt 0.125000 0.695913
vt 1.000000 0.250000
vt 0.125000 0.304087
vt 0.875000 0.304087
vt 1.125000 0.500000
vt 1.125000 0.695913
vt 1.250000 0.750000
vt 1.125000 0.304087
vt 1.250000 0.250000
vt 0.375000 0.500000
vt 0.375000 0.695913
vt 0.250000 0.750000
vt 0.250000 0.250000
vt 0.375000 0.304087
vt 0.125000 0.695913
vt 0.125000 0.500000
vt 0.125000 0.304087
vt 0.324324 1.176643
vt 0.097674 1.176643
vt 0.097670 -0.193534
vt 0.324247 -0.193536
vt 0.437494 0.250000
vt 0.437494 0.000000
vt 0.562506 0.000000
vt 0.562506 0.250000
vt 0.437494 0.750000
vt 0.437494 0.500000
vt 0.562506 0.500000
vt 0.562506 0.750000
vt 0.687397 0.249999
vt 0.687394 0.000000
vt 0.812397 0.000001
vt 0.812420 0.249999
vt 0.187494 0.250000
vt 0.187494 0.000000
vt 0.312506 0.000000
vt 0.312506 0.250000
vt 0.375000 0.312494
vt 0.624959 0.313290
vt 0.624977 0.440339
vt 0.375000 0.437506
vt 0.375000 0.812494
vt 0.624970 0.809723
vt 0.624965 0.937489
vt 0.562506 1.000000
vt 0.437494 1.000000
vt 0.375000 0.937506
vt 0.750000 0.750000
vt 0.625000 0.695913
vt 0.625000 0.500000
vt 0.625000 0.304087
vt 0.750000 0.250000
vt 0.875000 0.500000
vt 0.875000 0.695913
vt 0.875000 0.304087
vt 0.750000 0.750000
vt 0.625000 0.695913
vt 0.625000 0.500000
vt 0.625000 0.304087
vt 0.750000 0.250000
vt 0.875000 0.500000
vt 0.875000 0.695913
vt 0.875000 0.304087
vn 0.996759 0.056883 0.056883
vn 0.996759 0.056883 0.056883
vn 0.996759 0.056883 0.056883
vn 0.996759 0.056883 0.056883
vn 0.910691 0.387918 0.141988
vn 0.910691 0.387918 0.141988
vn 0.910691 0.387918 0.141988
vn 0.910691 0.387918 0.141988
vn 0.910691 0.141988 0.387919
vn 0.910691 0.141988 0.387919
vn 0.910691 0.141988 0.387919
vn 0.910691 0.141988 0.387919
vn -0.910691 0.387918 0.141990
vn -0.910691 0.387918 0.141990
vn -0.910691 0.387918 0.141990
vn -0.910691 0.387918 0.141990
vn -0.910691 0.141990 0.387919
vn -0.910691 0.141990 0.387919
vn -0.910691 0.141990 0.387919
vn -0.910691 0.141990 0.387919
vn -0.910691 -0.387918 0.141990
vn -0.910691 -0.387918 0.141990
vn -0.910691 -0.387918 0.141990
vn -0.910691 -0.387918 0.141990
vn -0.910691 -0.141990 0.387919
vn -0.910691 -0.141990 0.387919
vn -0.910691 -0.141990 0.387919
vn -0.910691 -0.141990 0.387919
vn 0.910691 -0.141988 0.387919
vn 0.910691 -0.141988 0.387919
vn 0.910691 -0.141988 0.387919
vn 0.910691 -0.141988 0.387919
vn 0.910691 -0.387919 0.141988
vn 0.910691 -0.387919 0.141988
vn 0.910691 -0.387919 0.141988
vn 0.910691 -0.387919 0.141988
vn 0.996759 -0.056883 0.056883
vn 0.996759 -0.056883 0.056883
vn 0.996759 -0.056883 0.056883
vn 0.996759 -0.056883 0.056883
vn 0.910691 0.141988 -0.387919
vn 0.910691 0.141988 -0.387919
vn 0.910691 0.141988 -0.387919
vn 0.910691 0.141988 -0.387919
vn 0.910691 0.387919 -0.141988
vn 0.910691 0.387919 -0.141988
vn 0.910691 0.387919 -0.141988
vn 0.910691 0.387919 -0.141988
vn 0.996759 0.056883 -0.056883
vn 0.996759 0.056883 -0.056883
vn 0.996759 0.056883 -0.056883
vn 0.996759 0.056883 -0.056883
vn -0.910691 0.141990 -0.387919
vn -0.910691 0.141990 -0.387919
vn -0.910691 0.141990 -0.387919
vn -0.910691 0.141990 -0.387919
vn -0.910691 0.387918 -0.141990
vn -0.910691 0.387918 -0.141990
vn -0.910691 0.387918 -0.141990
vn -0.910691 0.387918 -0.141990
vn -0.910691 -0.141990 -0.387919
vn -0.910691 -0.141990 -0.387919
vn -0.910691 -0.141990 -0.387919
vn -0.910691 -0.141990 -0.387919
vn -0.910691 -0.387918 -0.141990
vn -0.910691 -0.387918 -0.141990
vn -0.910691 -0.387918 -0.141990
vn -0.910691 -0.387918 -0.141990
vn 0.910691 -0.141988 -0.387919
vn 0.910691 -0.141988 -0.387919
vn 0.910691 -0.141988 -0.387919
vn 0.910691 -0.141988 -0.387919
vn 0.996759 -0.056883 -0.056883
vn 0.996759 -0.056883 -0.056883
vn 0.996759 -0.056883 -0.056883
vn 0.996759 -0.056883 -0.056883
vn 0.910691 -0.387918 -0.141988
vn 0.910691 -0.387918 -0.141988
vn 0.910691 -0.387918 -0.141988
vn 0.910691 -0.387918 -0.141988
vn -0.998775 0.017044 -0.046448
vn -0.998775 0.017044 -0.046448
vn -0.998775 0.017044 -0.046448
vn -0.998775 0.017044 -0.046448
vn -0.997278 -0.071821 0.016682
vn -0.997278 -0.071821 0.016682
vn -0.997278 -0.071821 0.016682
vn -0.997278 -0.071821 0.016682
vn -0.997278 0.071821 0.016682
vn -0.997278 0.071821 0.016682
vn -0.997278 0.071821 0.016682
vn -0.997278 0.071821 0.016682
vn -0.998775 -0.017044 -0.046448
vn -0.998775 -0.017044 -0.046448
vn -0.998775 -0.017044 -0.046448
vn -0.998775 -0.017044 -0.046448
vn -0.997278 -0.071821 -0.016682
vn -0.997278 -0.071821 -0.016682
vn -0.997278 -0.071821 -0.016682
vn -0.997278 -0.071821 -0.016682
vn -0.998775 0.017044 0.046448
vn -0.998775 0.017044 0.046448
vn -0.998775 0.017044 0.046448
vn -0.998775 0.017044 0.046448
vn -0.998775 -0.017044 0.046448
vn -0.998775 -0.017044 0.046448
vn -0.998775 -0.017044 0.046448
vn -0.998775 -0.017044 0.046448
vn -0.997278 0.071821 -0.016682
vn -0.997278 0.071821 -0.016682
vn -0.997278 0.071821 -0.016682
vn -0.997278 0.071821 -0.016682
vn -0.997872 0.065202 0.000000
vn -0.997872 0.065202 0.000000
vn -0.997872 0.065202 0.000000
vn -0.997872 0.065202 0.000000
vn 0.977777 0.209647 0.000000
vn 0.977777 0.209647 0.000000
vn 0.977777 0.209647 0.000000
vn 0.977777 0.209647 0.000000
vn -0.166242 0.006260 0.986065
vn -0.166242 0.006260 0.986065
vn -0.166242 0.006260 0.986065
vn -0.166242 0.006260 0.986065
vn 0.090938 -0.003424 -0.995851
vn 0.090938 -0.003424 -0.995851
vn 0.090938 -0.003424 -0.995851
vn 0.090938 -0.003424 -0.995851
vn -0.926556 -0.376158 0.000000
vn -0.926556 -0.376158 0.000000
vn -0.926556 -0.376158 0.000000
vn -0.926556 -0.376158 0.000000
vn 0.000000 0.000000 1.000000
vn 0.000000 0.000000 1.000000
vn 0.000000 0.000000 1.000000
vn 0.000000 0.000000 1.000000
vn 0.000000 0.000000 -1.000000
vn 0.000000 0.000000 -1.000000
vn 0.000000 0.000000 -1.000000
vn 0.000000 0.000000 -1.000000
vn 0.997872 -0.065202 0.000000
vn 0.997872 -0.065202 0.000000
vn 0.997872 -0.065202 0.000000
vn 0.997872 -0.065202 0.000000
vn -0.995803 -0.091526 0.000000
vn -0.995803 -0.091526 0.000000
vn -0.995803 -0.091526 0.000000
vn -0.995803 -0.091526 0.000000
vn 0.000000 1.000000 -0.000000
vn 0.000000 1.000000 -0.000000
vn 0.000000 1.000000 -0.000000
vn 0.000000 1.000000 -0.000000
vn 0.000000 1.000000 -0.000000
vn 0.000000 1.000000 -0.000000
vn 0.000000 1.000000 -0.000000
vn 0.000000 1.000000 -0.000000
vn -0.750693 -0.660651 0.000000
vn -0.750693 -0.660651 0.000000
vn -0.750693 -0.660651 0.000000
vn -0.750693 -0.660651 0.000000
vn -0.750693 -0.660651 0.000000
vn -0.750693 -0.660651 0.000000
vn -0.750693 -0.660651 0.000000
vn -0.750693 -0.660651 0.000000
vn -0.777684 -0.051018 0.626581
vn -0.777685 -0.051018 0.626581
vn -0.777684 -0.051018 0.626581
vn -0.777684 -0.051018 0.626581
vn 0.761590 -0.038723 0.646901
vn 0.761590 -0.038723 0.646901
vn 0.761590 -0.038723 0.646901
vn 0.761590 -0.038723 0.646901
vn -0.777685 -0.051017 -0.626581
vn -0.777685 -0.051017 -0.626581
vn -0.777685 -0.051017 -0.626581
vn -0.777685 -0.051017 -0.626581
vn 0.761590 -0.038722 -0.646901
vn 0.761590 -0.038722 -0.646901
vn 0.761590 -0.038722 -0.646901
vn 0.761590 -0.038722 -0.646901
vn 0.976270 -0.216081 -0.014355
vn 0.976270 -0.216081 -0.014355
vn 0.976270 -0.216081 -0.014355
vn 0.976270 -0.216081 -0.014355
vn 0.976270 -0.014355 -0.216081
vn 0.976270 -0.014355 -0.216081
vn 0.976270 -0.014355 -0.216081
vn 0.976270 -0.014355 -0.216081
vn 0.976270 0.014355 -0.216081
vn 0.976270 0.014355 -0.216081
vn 0.976270 0.014355 -0.216081
vn 0.976270 0.014355 -0.216081
vn 0.976270 0.216081 -0.014355
vn 0.976270 0.216081 -0.014355
vn 0.976270 0.216081 -0.014355
vn 0.976270 0.216081 -0.014355
vn 0.976270 -0.014355 0.216081
vn 0.976270 -0.014355 0.216081
vn 0.976270 -0.014355 0.216081
vn 0.976270 -0.014355 0.216081
vn 0.976270 -0.216081 0.014355
vn 0.976270 -0.216081 0.014355
vn 0.976270 -0.216081 0.014355
vn 0.976270 -0.216081 0.014355
vn 0.976270 0.216081 0.014355
vn 0.976270 0.216081 0.014355
vn 0.976270 0.216081 0.014355
vn 0.976270 0.216081 0.014355
vn 0.976270 0.014355 0.216081
vn 0.976270 0.014355 0.216081
vn 0.976270 0.014355 0.216081
vn 0.976270 0.014355 0.216081
vn 0.766698 0.620113 0.166233
vn 0.766698 0.620113 0.166233
vn 0.766698 0.620113 0.166233
vn 0.766698 0.620113 0.166233
vn 0.766698 0.166233 0.620114
vn 0.766698 0.166233 0.620114
vn 0.766698 0.166233 0.620114
vn 0.766698 0.166233 0.620114
vn 0.766698 -0.166233 0.620114
vn 0.766698 -0.166233 0.620114
vn 0.766698 -0.166233 0.620114
vn 0.766698 -0.166233 0.620114
vn 0.766698 -0.620113 0.166233
vn 0.766698 -0.620113 0.166233
vn 0.766698 -0.620113 0.166233
vn 0.766698 -0.620113 0.166233
vn 0.766698 0.166233 -0.620114
vn 0.766698 0.166233 -0.620114
vn 0.766698 0.166233 -0.620113
vn 0.766698 0.166233 -0.620114
vn 0.766698 0.620114 -0.166233
vn 0.766698 0.620114 -0.166233
vn 0.766698 0.620114 -0.166233
vn 0.766698 0.620114 -0.166233
vn 0.766698 -0.620113 -0.166233
vn 0.766698 -0.620113 -0.166233
vn 0.766698 -0.620113 -0.166233
vn 0.766698 -0.620113 -0.166233
vn 0.766698 -0.166232 -0.620114
vn 0.766698 -0.166232 -0.620114
vn 0.766698 -0.166232 -0.620114
vn 0.766698 -0.166232 -0.620114
s off
g WheelLeg
usemtl initialShadingGroup
f 57/79/1 58/2/2 59/77/3 60/78/4
f 5/6/5 2/3/6 6/7/7 8/9/8
f 6/7/9 1/1/10 7/8/11 8/9/12
f 6/7/13 2/3/14 9/10/15 11/12/16
f 10/11/17 1/1/18 6/7/19 11/12/20
f 12/13/21 3/4/22 13/14/23 14/15/24
f 13/14/25 1/1/26 10/11/27 14/15/28
f 7/8/29 1/1/30 13/14/31 16/17/32
f 13/14/33 3/4/34 15/16/35 16/17/36
f 61/81/37 58/2/38 57/79/39 62/80/40
f 18/19/41 4/5/42 17/18/43 19/20/44
f 17/18/45 2/3/46 5/6/47 19/20/48
f 59/77/49 58/2/50 63/82/51 64/83/52
f 17/18/53 4/5/54 20/26/55 21/27/56
f 9/28/57 2/3/58 17/18/59 21/27/60
f 20/26/61 4/5/62 22/23/63 23/29/64
f 22/23/65 3/4/66 12/30/67 23/29/68
f 22/23/69 4/5/70 18/19/71 24/25/72
f 63/82/73 58/2/74 61/81/75 65/84/76
f 15/16/77 3/4/78 22/23/79 24/25/80
f 10/11/81 11/12/82 27/32/83 26/31/84
f 11/12/85 9/10/86 25/33/87 27/32/88
f 12/13/89 14/15/90 29/35/91 28/34/92
f 14/15/93 10/11/94 26/31/95 29/35/96
f 9/10/97 21/22/98 31/36/99 25/33/100
f 21/22/101 20/21/102 30/37/103 31/36/104
f 20/21/105 23/24/106 32/38/107 30/37/108
f 23/24/109 12/13/110 28/34/111 32/38/112
f 33/39/113 34/40/114 35/41/115 36/42/116
f 33/39/117 27/32/118 31/36/119 34/40/120
f 27/32/121 33/39/122 36/42/123 29/35/124
f 34/40/125 31/36/126 32/38/127 35/41/128
f 35/41/129 32/38/130 29/35/131 36/42/132
f 40/43/133 38/44/134 41/45/135 42/46/136
f 46/47/137 44/48/138 47/49/139 48/50/140
f 33/51/141 36/52/142 35/53/143 34/54/144
f 43/55/145 45/56/146 37/57/147 39/58/148
f 39/59/149 40/43/150 42/46/151 33/60/152 34/61/153 47/49/154 44/48/155 43/62/156
f 45/63/157 46/47/158 48/50/159 35/64/160 36/65/161 41/66/162 38/67/163 37/68/164
f 37/57/165 38/44/166 40/43/167 39/58/168
f 41/45/169 36/52/170 33/51/171 42/46/172
f 43/62/173 44/48/174 46/47/175 45/63/176
f 47/49/177 34/61/178 35/64/179 48/50/180
f 5/6/181 8/9/182 51/70/183 50/69/184
f 8/9/185 7/8/186 49/71/187 51/70/188
f 7/8/189 16/17/190 53/72/191 49/71/192
f 16/17/193 15/16/194 52/73/195 53/72/196
f 18/19/197 19/20/198 55/75/199 54/74/200
f 19/20/201 5/6/202 50/69/203 55/75/204
f 15/16/205 24/25/206 56/76/207 52/73/208
f 24/25/209 18/19/210 54/74/211 56/76/212
f 50/69/213 51/70/214 60/78/215 59/77/216
f 51/70/217 49/71/218 57/79/219 60/78/220
f 49/71/221 53/72/222 62/80/223 57/79/224
f 53/72/225 52/73/226 61/81/227 62/80/228
f 54/74/229 55/75/230 64/83/231 63/82/232
f 55/75/233 50/69/234 59/77/235 64/83/236
f 52/73/237 56/76/238 65/84/239 61/81/240
f 56/76/241 54/74/242 63/82/243 65/84/244
